<mxfile host="app.diagrams.net" modified="2023-12-21T09:35:24.681Z" agent="Mozilla/5.0 (Windows NT 10.0; Win64; x64) AppleWebKit/537.36 (KHTML, like Gecko) Chrome/120.0.0.0 Safari/537.36" etag="0yW4Ars3MyqliBx5iKuG" version="22.1.11" type="github">
  <diagram name="第 1 页" id="KpdvF4j9WkUie7ZQBkah">
    <mxGraphModel dx="1074" dy="604" grid="1" gridSize="10" guides="1" tooltips="1" connect="1" arrows="1" fold="1" page="1" pageScale="1" pageWidth="827" pageHeight="1169" math="0" shadow="0">
      <root>
        <mxCell id="0" />
        <mxCell id="1" parent="0" />
        <mxCell id="iA0VQaw9tGgI4hhNwJYj-8" value="v4" style="rounded=0;whiteSpace=wrap;html=1;" vertex="1" parent="1">
          <mxGeometry x="354" y="380" width="120" height="30" as="geometry" />
        </mxCell>
        <mxCell id="iA0VQaw9tGgI4hhNwJYj-14" value="v5" style="rounded=0;whiteSpace=wrap;html=1;" vertex="1" parent="1">
          <mxGeometry x="354" y="350" width="120" height="30" as="geometry" />
        </mxCell>
        <mxCell id="iA0VQaw9tGgI4hhNwJYj-15" value="src 0x100" style="rounded=0;whiteSpace=wrap;html=1;" vertex="1" parent="1">
          <mxGeometry x="354" y="190" width="120" height="170" as="geometry" />
        </mxCell>
        <mxCell id="iA0VQaw9tGgI4hhNwJYj-16" value="buf" style="rounded=0;whiteSpace=wrap;html=1;" vertex="1" parent="1">
          <mxGeometry x="354" y="170" width="120" height="30" as="geometry" />
        </mxCell>
        <mxCell id="iA0VQaw9tGgI4hhNwJYj-17" value="adress" style="rounded=0;whiteSpace=wrap;html=1;" vertex="1" parent="1">
          <mxGeometry x="354" y="140" width="120" height="30" as="geometry" />
        </mxCell>
        <mxCell id="iA0VQaw9tGgI4hhNwJYj-19" value="" style="endArrow=classic;html=1;rounded=0;entryX=1;entryY=0;entryDx=0;entryDy=0;" edge="1" parent="1" target="iA0VQaw9tGgI4hhNwJYj-17">
          <mxGeometry width="50" height="50" relative="1" as="geometry">
            <mxPoint x="560" y="140" as="sourcePoint" />
            <mxPoint x="490" y="260" as="targetPoint" />
          </mxGeometry>
        </mxCell>
        <mxCell id="iA0VQaw9tGgI4hhNwJYj-21" value="ebp" style="text;html=1;strokeColor=none;fillColor=none;align=center;verticalAlign=middle;whiteSpace=wrap;rounded=0;" vertex="1" parent="1">
          <mxGeometry x="560" y="120" width="60" height="30" as="geometry" />
        </mxCell>
        <mxCell id="iA0VQaw9tGgI4hhNwJYj-22" value="&amp;amp;src&amp;nbsp;" style="rounded=0;whiteSpace=wrap;html=1;" vertex="1" parent="1">
          <mxGeometry x="354" y="410" width="120" height="40" as="geometry" />
        </mxCell>
        <mxCell id="iA0VQaw9tGgI4hhNwJYj-23" value="ret address" style="rounded=0;whiteSpace=wrap;html=1;" vertex="1" parent="1">
          <mxGeometry x="354" y="450" width="120" height="30" as="geometry" />
        </mxCell>
        <mxCell id="iA0VQaw9tGgI4hhNwJYj-24" value="main&#39;s ebp" style="rounded=0;whiteSpace=wrap;html=1;" vertex="1" parent="1">
          <mxGeometry x="354" y="480" width="120" height="40" as="geometry" />
        </mxCell>
        <mxCell id="iA0VQaw9tGgI4hhNwJYj-25" value="desk" style="rounded=0;whiteSpace=wrap;html=1;" vertex="1" parent="1">
          <mxGeometry x="354" y="520" width="120" height="80" as="geometry" />
        </mxCell>
      </root>
    </mxGraphModel>
  </diagram>
</mxfile>
